<?xml version="1.0" encoding="UTF-8" standalone="no"?>
<!-- Svg Vector Icons : http://www.onlinewebfonts.com/icon -->

<svg
   version="1.1"
   x="0px"
   y="0px"
   viewBox="0 0 1000 1000"
   enable-background="new 0 0 1000 1000"
   xml:space="preserve"
   id="svg11365"
   sodipodi:docname="pencil.svg"
   inkscape:version="1.1.1 (3bf5ae0d25, 2021-09-20)"
   xmlns:inkscape="http://www.inkscape.org/namespaces/inkscape"
   xmlns:sodipodi="http://sodipodi.sourceforge.net/DTD/sodipodi-0.dtd"
   xmlns="http://www.w3.org/2000/svg"
   xmlns:svg="http://www.w3.org/2000/svg"><defs
   id="defs11369" /><sodipodi:namedview
   id="namedview11367"
   pagecolor="#505050"
   bordercolor="#eeeeee"
   borderopacity="1"
   inkscape:pageshadow="0"
   inkscape:pageopacity="0"
   inkscape:pagecheckerboard="0"
   showgrid="false"
   inkscape:zoom="0.436"
   inkscape:cx="511.46789"
   inkscape:cy="723.62385"
   inkscape:window-width="1920"
   inkscape:window-height="1017"
   inkscape:window-x="-8"
   inkscape:window-y="-8"
   inkscape:window-maximized="1"
   inkscape:current-layer="g11361" />
<metadata
   id="metadata11349"> Svg Vector Icons : http://www.onlinewebfonts.com/icon </metadata>
<g
   id="g11363"><g
     transform="translate(0.000000,511.000000) scale(0.100000,-0.100000)"
     id="g11361"><path
       d="m 1890.9075,4013.5823 c -29.3267,-28.8445 -50.3561,-78.3726 -50.3561,-115.378 0,-32.9249 1458.468,-1496.3962 3243.9647,-3252.3929 2984.0298,-2935.1035 3252.4051,-3186.5431 3352.9743,-3161.779 75.3912,16.4625 109.0096,53.6085 109.0096,119.5991 0,65.9906 -880.0878,956.371 -3239.673,3277.15702 C 3529.6276,2628.4836 2041.8328,4062.9697 2004.0657,4062.9697 c -33.4753,0 -83.8315,-20.5429 -113.1582,-49.3874 z"
       id="path11357"
       style="stroke-width:1.41876"
       sodipodi:nodetypes="ssccscss" /><path
       d="m 857.52807,3207.8345 c -30.68313,-30.034 -51.32348,-79.5769 -51.32348,-117.1509 0,-33.4309 1486.48561,-1519.3894 3301.90811,-3298.22509 2780.7998,-2724.75741 3323.3416,-3235.36371 3408.7835,-3222.79141 68.3827,8.2863 106.7295,46.0032 115.3321,113.0077 12.8308,83.72 -508.2775,615.3278 -3289.0773,3340.085139 C 2527.7285,1801.4528 1011.3527,3257.9807 977.08847,3257.9807 c -38.34681,0 -88.89083,-20.1256 -119.5604,-50.1462 z"
       id="path11359"
       sodipodi:nodetypes="ssscccss"
       style="stroke-width:1.44329" /><path
       d="m 977.69725,4129.5028 c -518.6,-518.6 -943.400002,-963.9 -943.400002,-987.3 C 34.297248,3118.8028 3378.4,-245.9 4761.2,-1628.7 L 7272,-4139.4 7814,-4283 c 298.8,-79.1 641.6,-169.9 761.7,-202.1 1209.9,-325.2 1262.7,-336.9 1309.6,-290 46.9,46.9 2.9,240.2 -448.2,1904.3 -87.9,316.4 -158.2,600.6 -158.2,629.9 0,61.5 -7249.4028,7316.8028 -7310.9028,7316.8028 -23.5,-0.1 -468.8,-424.9 -990.29995,-946.4 z M 8159.7,-3046.7 7330.6,-3875.8 4922.4,-1467.6 297.99725,3156.8028 l 826.19995,826.2 829.1,829.1 L 6574.8,190.6 8985.9,-2220.5 Z m 1057.6,149.4 c 67.4,-246.1 120.1,-468.7 120.1,-501 0,-70.3 -758.8,-829.1 -829.1,-829.1 -29.3,0 -257.8,55.7 -506.8,123 l -670.9,228.6 838.4376,840.3985 C 8362.4657,-2841.521 8985.9,-2220.5 8985.9,-2220.5 c 2.9,-2.9 167,-433.6 231.4,-676.8 z m 322.3,-1209.9 c 61.5,-225.6 105.4,-416 99.6,-421.9 -5.9,-5.9 -143.5,23.4 -310.5,70.3 -164.1,43.9 -357.4,93.8 -427.7,114.3 l -258.6444,83.8541 385.3267,360.9997 363.4361,338.8815 c 2.9,-5.9 86.9816,-317.9353 148.4816,-546.4353 z"
       id="path11355"
       sodipodi:nodetypes="ssccccscscsccccccccccssccscccccccccc" /></g></g>
</svg>
